<?xml version="1.0" encoding="UTF-8"?>
<svg xmlns="http://www.w3.org/2000/svg" width="900" height="600">
<rect width="900" height="600" fill="#fff"/>
<path fill="#f00" d="M 0,0 H 900 V 600 H 0 z M 0,240 H 360 V 0 H 540 V 240 H 900 V 360 H 540 V 600 H 360 V 360 H 0 z"/>
<path fill="#f00" d="M 376,146 A 14,14 0 0 1 390,160 14,14 0 0 1 376,174 14,14 0 0 0 362,188 14,14 0 0 0 376,202 14,14 0 0 1 390,216 14,14 0 0 1 376,230 L 376,279 A 49,49 0 0 1 425,230 49,49 0 0 1 474,279 L 523,279 A 14,14 0 0 1 509,265 14,14 0 0 1 523,251 14,14 0 0 0 537,237 14,14 0 0 0 523,223 14,14 0 0 1 509,209 14,14 0 0 1 523,195 L 523,146 A 49,49 0 0 1 474,195 49,49 0 0 1 425,146 L 376,146 z M 376,384 L 376,433 A 14,14 0 0 1 390,447 14,14 0 0 1 376,461 14,14 0 0 0 362,475 14,14 0 0 0 376,489 14,14 0 0 1 390,503 14,14 0 0 1 376,517 L 425,517 A 49,49 0 0 1 474,468 49,49 0 0 1 523,517 L 523,468 A 14,14 0 0 1 509,454 14,14 0 0 1 523,440 14,14 0 0 0 537,426 14,14 0 0 0 523,412 14,14 0 0 1 509,398 14,14 0 0 1 523,384 L 474,384 A 49,49 0 0 1 425,433 49,49 0 0 1 376,384 z"/>
</svg>